<svg width="457" height="303" viewBox="0 0 457 303" fill="none" xmlns="http://www.w3.org/2000/svg">
<g clip-path="url(#clip0_3316_42196)">
<path d="M317.24 246.162C315.583 246.162 314.239 244.815 314.239 243.154C314.239 241.492 315.583 240.145 317.24 240.145C318.897 240.145 320.24 241.492 320.24 243.154C320.24 244.815 318.897 246.162 317.24 246.162Z" fill="#C9DFF2"/>
<path d="M332.436 246.162C330.779 246.162 329.436 244.815 329.436 243.154C329.436 241.492 330.779 240.145 332.436 240.145C334.093 240.145 335.437 241.492 335.437 243.154C335.437 244.815 334.093 246.162 332.436 246.162Z" fill="#C9DFF2"/>
<path d="M347.629 246.162C345.972 246.162 344.629 244.815 344.629 243.154C344.629 241.492 345.972 240.145 347.629 240.145C349.287 240.145 350.63 241.492 350.63 243.154C350.63 244.815 349.287 246.162 347.629 246.162Z" fill="#C9DFF2"/>
<path d="M362.827 246.162C361.17 246.162 359.826 244.815 359.826 243.154C359.826 241.492 361.17 240.145 362.827 240.145C364.484 240.145 365.827 241.492 365.827 243.154C365.827 244.815 364.484 246.162 362.827 246.162Z" fill="#C9DFF2"/>
<path d="M256.46 246.162C254.802 246.162 253.459 244.815 253.459 243.154C253.459 241.492 254.802 240.145 256.46 240.145C258.117 240.145 259.46 241.492 259.46 243.154C259.46 244.815 258.117 246.162 256.46 246.162Z" fill="#C9DFF2"/>
<path d="M271.653 246.162C269.996 246.162 268.652 244.815 268.652 243.154C268.652 241.492 269.996 240.145 271.653 240.145C273.31 240.145 274.653 241.492 274.653 243.154C274.653 244.815 273.31 246.162 271.653 246.162Z" fill="#C9DFF2"/>
<path d="M286.85 246.162C285.193 246.162 283.85 244.815 283.85 243.154C283.85 241.492 285.193 240.145 286.85 240.145C288.507 240.145 289.851 241.492 289.851 243.154C289.851 244.815 288.507 246.162 286.85 246.162Z" fill="#C9DFF2"/>
<path d="M302.044 246.162C300.386 246.162 299.043 244.815 299.043 243.154C299.043 241.492 300.386 240.145 302.044 240.145C303.701 240.145 305.044 241.492 305.044 243.154C305.044 244.815 303.701 246.162 302.044 246.162Z" fill="#C9DFF2"/>
<path d="M195.676 246.162C194.019 246.162 192.676 244.815 192.676 243.154C192.676 241.492 194.019 240.145 195.676 240.145C197.333 240.145 198.677 241.492 198.677 243.154C198.677 244.815 197.333 246.162 195.676 246.162Z" fill="#C9DFF2"/>
<path d="M210.874 246.162C209.217 246.162 207.873 244.815 207.873 243.154C207.873 241.492 209.217 240.145 210.874 240.145C212.531 240.145 213.874 241.492 213.874 243.154C213.874 244.815 212.531 246.162 210.874 246.162Z" fill="#C9DFF2"/>
<path d="M226.067 246.162C224.41 246.162 223.067 244.815 223.067 243.154C223.067 241.492 224.41 240.145 226.067 240.145C227.724 240.145 229.067 241.492 229.067 243.154C229.067 244.815 227.724 246.162 226.067 246.162Z" fill="#C9DFF2"/>
<path d="M241.263 246.162C239.606 246.162 238.263 244.815 238.263 243.154C238.263 241.492 239.606 240.145 241.263 240.145C242.92 240.145 244.264 241.492 244.264 243.154C244.264 244.815 242.92 246.162 241.263 246.162Z" fill="#C9DFF2"/>
<path d="M134.897 246.162C133.24 246.162 131.897 244.815 131.897 243.154C131.897 241.492 133.24 240.145 134.897 240.145C136.554 240.145 137.897 241.492 137.897 243.154C137.897 244.815 136.554 246.162 134.897 246.162Z" fill="#C9DFF2"/>
<path d="M150.089 246.162C148.432 246.162 147.089 244.815 147.089 243.154C147.089 241.492 148.432 240.145 150.089 240.145C151.747 240.145 153.09 241.492 153.09 243.154C153.09 244.815 151.747 246.162 150.089 246.162Z" fill="#C9DFF2"/>
<path d="M165.287 246.162C163.63 246.162 162.286 244.815 162.286 243.154C162.286 241.492 163.63 240.145 165.287 240.145C166.944 240.145 168.287 241.492 168.287 243.154C168.287 244.815 166.944 246.162 165.287 246.162Z" fill="#C9DFF2"/>
<path d="M180.48 246.162C178.823 246.162 177.48 244.815 177.48 243.154C177.48 241.492 178.823 240.145 180.48 240.145C182.137 240.145 183.48 241.492 183.48 243.154C183.48 244.815 182.137 246.162 180.48 246.162Z" fill="#C9DFF2"/>
<path d="M74.1129 246.162C72.4558 246.162 71.1124 244.815 71.1124 243.154C71.1124 241.492 72.4558 240.145 74.1129 240.145C75.77 240.145 77.1133 241.492 77.1133 243.154C77.1133 244.815 75.77 246.162 74.1129 246.162Z" fill="#C9DFF2"/>
<path d="M89.3101 246.162C87.653 246.162 86.3097 244.815 86.3097 243.154C86.3097 241.492 87.653 240.145 89.3101 240.145C90.9672 240.145 92.3105 241.492 92.3105 243.154C92.3105 244.815 90.9672 246.162 89.3101 246.162Z" fill="#C9DFF2"/>
<path d="M104.503 246.162C102.846 246.162 101.503 244.815 101.503 243.154C101.503 241.492 102.846 240.145 104.503 240.145C106.161 240.145 107.504 241.492 107.504 243.154C107.504 244.815 106.161 246.162 104.503 246.162Z" fill="#C9DFF2"/>
<path d="M119.7 246.162C118.043 246.162 116.699 244.815 116.699 243.154C116.699 241.492 118.043 240.145 119.7 240.145C121.357 240.145 122.7 241.492 122.7 243.154C122.7 244.815 121.357 246.162 119.7 246.162Z" fill="#C9DFF2"/>
<path d="M438.803 246.162C437.146 246.162 435.803 244.815 435.803 243.154C435.803 241.492 437.146 240.145 438.803 240.145C440.46 240.145 441.804 241.492 441.804 243.154C441.804 244.815 440.46 246.162 438.803 246.162Z" fill="#C9DFF2"/>
<path d="M454 246.162C452.342 246.162 450.999 244.815 450.999 243.154C450.999 241.492 452.342 240.145 454 240.145C455.657 240.145 457 241.492 457 243.154C457 244.815 455.657 246.162 454 246.162Z" fill="#C9DFF2"/>
<path d="M378.023 246.162C376.366 246.162 375.023 244.815 375.023 243.154C375.023 241.492 376.366 240.145 378.023 240.145C379.68 240.145 381.023 241.492 381.023 243.154C381.023 244.815 379.68 246.162 378.023 246.162Z" fill="#C9DFF2"/>
<path d="M393.216 246.162C391.559 246.162 390.216 244.815 390.216 243.154C390.216 241.492 391.559 240.145 393.216 240.145C394.873 240.145 396.217 241.492 396.217 243.154C396.217 244.815 394.873 246.162 393.216 246.162Z" fill="#C9DFF2"/>
<path d="M408.414 246.162C406.757 246.162 405.413 244.815 405.413 243.154C405.413 241.492 406.757 240.145 408.414 240.145C410.071 240.145 411.414 241.492 411.414 243.154C411.414 244.815 410.071 246.162 408.414 246.162Z" fill="#C9DFF2"/>
<path d="M423.606 246.162C421.949 246.162 420.606 244.815 420.606 243.154C420.606 241.492 421.949 240.145 423.606 240.145C425.263 240.145 426.606 241.492 426.606 243.154C426.606 244.815 425.263 246.162 423.606 246.162Z" fill="#C9DFF2"/>
<path d="M300.134 256.57C299.079 255.512 299.079 253.798 300.134 252.741C301.188 251.683 302.898 251.683 303.952 252.741C305.007 253.798 305.007 255.512 303.952 256.57C302.898 257.627 301.188 257.627 300.134 256.57Z" fill="#C9DFF2"/>
<path d="M315.331 256.573C314.277 255.516 314.276 253.802 315.331 252.744C316.385 251.687 318.095 251.687 319.149 252.744C320.204 253.802 320.204 255.516 319.149 256.573C318.095 257.63 316.385 257.63 315.331 256.573Z" fill="#C9DFF2"/>
<path d="M329.813 255.268C329.47 253.813 330.369 252.355 331.82 252.011C333.271 251.668 334.726 252.569 335.068 254.024C335.411 255.48 334.512 256.938 333.061 257.281C331.609 257.625 330.155 256.723 329.813 255.268Z" fill="#C9DFF2"/>
<path d="M238.644 255.266C238.301 253.81 239.2 252.352 240.651 252.009C242.103 251.665 243.557 252.566 243.899 254.022C244.242 255.477 243.343 256.935 241.892 257.279C240.44 257.622 238.986 256.721 238.644 255.266Z" fill="#C9DFF2"/>
<path d="M254.552 256.574C253.497 255.517 253.497 253.803 254.552 252.745C255.606 251.688 257.316 251.688 258.37 252.745C259.425 253.803 259.425 255.517 258.37 256.574C257.316 257.631 255.606 257.631 254.552 256.574Z" fill="#C9DFF2"/>
<path d="M268.981 255.104C268.742 253.628 269.742 252.237 271.214 251.998C272.686 251.758 274.073 252.76 274.312 254.236C274.55 255.712 273.551 257.103 272.079 257.342C270.607 257.582 269.22 256.58 268.981 255.104Z" fill="#C9DFF2"/>
<path d="M284.227 255.269C283.884 253.813 284.783 252.355 286.234 252.012C287.686 251.668 289.14 252.569 289.482 254.025C289.825 255.48 288.926 256.938 287.475 257.282C286.023 257.625 284.569 256.724 284.227 255.269Z" fill="#C9DFF2"/>
<path d="M193.058 255.266C192.715 253.811 193.614 252.353 195.065 252.009C196.517 251.666 197.971 252.567 198.313 254.022C198.656 255.477 197.757 256.936 196.306 257.279C194.854 257.623 193.4 256.721 193.058 255.266Z" fill="#C9DFF2"/>
<path d="M208.964 256.573C207.909 255.515 207.909 253.801 208.964 252.744C210.018 251.687 211.728 251.687 212.782 252.744C213.837 253.801 213.837 255.515 212.782 256.573C211.728 257.63 210.018 257.63 208.964 256.573Z" fill="#C9DFF2"/>
<path d="M223.395 255.102C223.156 253.626 224.156 252.236 225.628 251.996C227.1 251.756 228.487 252.759 228.726 254.235C228.965 255.71 227.965 257.101 226.493 257.341C225.021 257.58 223.634 256.578 223.395 255.102Z" fill="#C9DFF2"/>
<path d="M132.218 255.106C131.979 253.63 132.978 252.239 134.45 252C135.922 251.76 137.309 252.762 137.548 254.238C137.787 255.714 136.787 257.105 135.315 257.344C133.843 257.584 132.456 256.582 132.218 255.106Z" fill="#C9DFF2"/>
<path d="M147.476 255.266C147.133 253.811 148.032 252.353 149.483 252.01C150.935 251.666 152.389 252.567 152.731 254.023C153.074 255.478 152.175 256.936 150.724 257.279C149.272 257.623 147.818 256.722 147.476 255.266Z" fill="#C9DFF2"/>
<path d="M163.379 256.571C162.324 255.514 162.324 253.8 163.379 252.742C164.433 251.685 166.143 251.685 167.197 252.742C168.252 253.8 168.252 255.514 167.197 256.571C166.143 257.629 164.433 257.629 163.379 256.571Z" fill="#C9DFF2"/>
<path d="M177.806 255.104C177.567 253.628 178.567 252.237 180.039 251.998C181.511 251.758 182.898 252.76 183.137 254.236C183.376 255.712 182.376 257.103 180.904 257.343C179.432 257.582 178.045 256.58 177.806 255.104Z" fill="#C9DFF2"/>
<path d="M71.4334 255.106C71.1944 253.63 72.194 252.239 73.6659 252C75.1378 251.76 76.5248 252.762 76.7637 254.238C77.0026 255.714 76.003 257.105 74.5311 257.345C73.0592 257.584 71.6723 256.582 71.4334 255.106Z" fill="#C9DFF2"/>
<path d="M74.1128 267.619C72.9044 267.619 71.9248 266.637 71.9248 265.425C71.9248 264.214 72.9044 263.231 74.1128 263.231C75.3212 263.231 76.3008 264.214 76.3008 265.425C76.3008 266.637 75.3212 267.619 74.1128 267.619Z" fill="#C9DFF2"/>
<path d="M89.31 267.619C88.1016 267.619 87.122 266.637 87.122 265.425C87.122 264.214 88.1016 263.231 89.31 263.231C90.5184 263.231 91.498 264.214 91.498 265.425C91.498 266.637 90.5184 267.619 89.31 267.619Z" fill="#C9DFF2"/>
<path d="M102.315 265.425C102.315 266.637 103.295 267.619 104.503 267.619C105.712 267.619 106.691 266.637 106.691 265.425C106.691 264.214 105.712 263.231 104.503 263.231C103.295 263.231 102.315 264.214 102.315 265.425Z" fill="#C9DFF2"/>
<path d="M119.7 267.619C118.491 267.619 117.512 266.637 117.512 265.425C117.512 264.214 118.491 263.231 119.7 263.231C120.908 263.231 121.888 264.214 121.888 265.425C121.888 266.637 120.908 267.619 119.7 267.619Z" fill="#C9DFF2"/>
<path d="M134.897 267.619C133.689 267.619 132.709 266.637 132.709 265.425C132.709 264.214 133.689 263.231 134.897 263.231C136.105 263.231 137.085 264.214 137.085 265.425C137.085 266.637 136.105 267.619 134.897 267.619Z" fill="#C9DFF2"/>
<path d="M147.902 265.425C147.902 266.637 148.882 267.619 150.09 267.619C151.299 267.619 152.278 266.637 152.278 265.425C152.278 264.214 151.299 263.231 150.09 263.231C148.882 263.231 147.902 264.214 147.902 265.425Z" fill="#C9DFF2"/>
<path d="M163.099 265.425C163.099 266.637 164.078 267.619 165.287 267.619C166.495 267.619 167.475 266.637 167.475 265.425C167.475 264.214 166.495 263.231 165.287 263.231C164.078 263.231 163.099 264.214 163.099 265.425Z" fill="#C9DFF2"/>
<path d="M180.48 267.619C179.272 267.619 178.292 266.637 178.292 265.425C178.292 264.214 179.272 263.231 180.48 263.231C181.688 263.231 182.668 264.214 182.668 265.425C182.668 266.637 181.688 267.619 180.48 267.619Z" fill="#C9DFF2"/>
<path d="M193.488 265.425C193.488 266.637 194.468 267.619 195.676 267.619C196.885 267.619 197.864 266.637 197.864 265.425C197.864 264.214 196.885 263.231 195.676 263.231C194.468 263.231 193.488 264.214 193.488 265.425Z" fill="#C9DFF2"/>
<path d="M208.685 265.425C208.685 266.637 209.665 267.619 210.874 267.619C212.082 267.619 213.062 266.637 213.062 265.425C213.062 264.214 212.082 263.231 210.874 263.231C209.665 263.231 208.685 264.214 208.685 265.425Z" fill="#C9DFF2"/>
<path d="M226.067 267.619C224.858 267.619 223.879 266.637 223.879 265.425C223.879 264.214 224.858 263.231 226.067 263.231C227.275 263.231 228.255 264.214 228.255 265.425C228.255 266.637 227.275 267.619 226.067 267.619Z" fill="#C9DFF2"/>
<path d="M239.075 265.425C239.075 266.637 240.055 267.619 241.263 267.619C242.471 267.619 243.451 266.637 243.451 265.425C243.451 264.214 242.471 263.231 241.263 263.231C240.055 263.231 239.075 264.214 239.075 265.425Z" fill="#C9DFF2"/>
<path d="M254.268 265.425C254.268 266.637 255.248 267.619 256.456 267.619C257.665 267.619 258.645 266.637 258.645 265.425C258.645 264.214 257.665 263.231 256.456 263.231C255.248 263.231 254.268 264.214 254.268 265.425Z" fill="#C9DFF2"/>
<path d="M271.653 267.619C270.444 267.619 269.465 266.637 269.465 265.425C269.465 264.214 270.444 263.231 271.653 263.231C272.861 263.231 273.841 264.214 273.841 265.425C273.841 266.637 272.861 267.619 271.653 267.619Z" fill="#C9DFF2"/>
<path d="M284.662 265.425C284.662 266.637 285.642 267.619 286.85 267.619C288.058 267.619 289.038 266.637 289.038 265.425C289.038 264.214 288.058 263.231 286.85 263.231C285.642 263.231 284.662 264.214 284.662 265.425Z" fill="#C9DFF2"/>
<path d="M299.855 265.425C299.855 266.637 300.835 267.619 302.043 267.619C303.252 267.619 304.231 266.637 304.231 265.425C304.231 264.214 303.252 263.231 302.043 263.231C300.835 263.231 299.855 264.214 299.855 265.425Z" fill="#C9DFF2"/>
<path d="M317.24 267.619C316.031 267.619 315.052 266.637 315.052 265.425C315.052 264.214 316.031 263.231 317.24 263.231C318.448 263.231 319.428 264.214 319.428 265.425C319.428 266.637 318.448 267.619 317.24 267.619Z" fill="#C9DFF2"/>
<path d="M332.437 267.619C331.229 267.619 330.249 266.637 330.249 265.425C330.249 264.214 331.229 263.231 332.437 263.231C333.645 263.231 334.625 264.214 334.625 265.425C334.625 266.637 333.645 267.619 332.437 267.619Z" fill="#C9DFF2"/>
<path d="M345.442 265.425C345.442 266.637 346.422 267.619 347.63 267.619C348.839 267.619 349.818 266.637 349.818 265.425C349.818 264.214 348.839 263.231 347.63 263.231C346.422 263.231 345.442 264.214 345.442 265.425Z" fill="#C9DFF2"/>
<path d="M362.827 267.619C361.618 267.619 360.639 266.637 360.639 265.425C360.639 264.214 361.618 263.231 362.827 263.231C364.035 263.231 365.015 264.214 365.015 265.425C365.015 266.637 364.035 267.619 362.827 267.619Z" fill="#C9DFF2"/>
<path d="M378.023 267.619C376.815 267.619 375.835 266.637 375.835 265.425C375.835 264.214 376.815 263.231 378.023 263.231C379.231 263.231 380.211 264.214 380.211 265.425C380.211 266.637 379.231 267.619 378.023 267.619Z" fill="#C9DFF2"/>
<path d="M391.028 265.425C391.028 266.637 392.008 267.619 393.216 267.619C394.425 267.619 395.404 266.637 395.404 265.425C395.404 264.214 394.425 263.231 393.216 263.231C392.008 263.231 391.028 264.214 391.028 265.425Z" fill="#C9DFF2"/>
<path d="M406.226 265.425C406.226 266.637 407.205 267.619 408.414 267.619C409.622 267.619 410.602 266.637 410.602 265.425C410.602 264.214 409.622 263.231 408.414 263.231C407.205 263.231 406.226 264.214 406.226 265.425Z" fill="#C9DFF2"/>
<path d="M423.607 267.619C422.398 267.619 421.419 266.637 421.419 265.425C421.419 264.214 422.398 263.231 423.607 263.231C424.815 263.231 425.795 264.214 425.795 265.425C425.795 266.637 424.815 267.619 423.607 267.619Z" fill="#C9DFF2"/>
<path d="M436.615 265.425C436.615 266.637 437.595 267.619 438.803 267.619C440.012 267.619 440.991 266.637 440.991 265.425C440.991 264.214 440.012 263.231 438.803 263.231C437.595 263.231 436.615 264.214 436.615 265.425Z" fill="#C9DFF2"/>
<path d="M451.811 265.425C451.811 266.637 452.791 267.619 453.999 267.619C455.208 267.619 456.188 266.637 456.188 265.425C456.188 264.214 455.208 263.231 453.999 263.231C452.791 263.231 451.811 264.214 451.811 265.425Z" fill="#C9DFF2"/>
<path d="M86.6944 255.267C86.3519 253.812 87.2507 252.354 88.702 252.01C90.1533 251.667 91.6075 252.568 91.9501 254.023C92.2926 255.478 91.3938 256.936 89.9425 257.28C88.4911 257.623 87.0369 256.722 86.6944 255.267Z" fill="#C9DFF2"/>
<path d="M101.89 255.263C101.547 253.808 102.446 252.35 103.897 252.007C105.349 251.663 106.803 252.564 107.145 254.02C107.488 255.475 106.589 256.933 105.138 257.276C103.686 257.62 102.232 256.719 101.89 255.263Z" fill="#C9DFF2"/>
<path d="M117.791 256.573C116.736 255.516 116.736 253.802 117.791 252.744C118.845 251.687 120.555 251.687 121.609 252.744C122.664 253.802 122.664 255.516 121.609 256.573C120.555 257.631 118.845 257.631 117.791 256.573Z" fill="#C9DFF2"/>
<path d="M406.504 256.573C405.449 255.515 405.449 253.801 406.504 252.744C407.558 251.686 409.268 251.686 410.322 252.744C411.377 253.801 411.377 255.515 410.322 256.573C409.268 257.63 407.558 257.63 406.504 256.573Z" fill="#C9DFF2"/>
<path d="M421.07 255.102C420.831 253.626 421.831 252.235 423.303 251.995C424.775 251.756 426.161 252.758 426.4 254.234C426.639 255.71 425.64 257.101 424.168 257.34C422.696 257.58 421.309 256.578 421.07 255.102Z" fill="#C9DFF2"/>
<path d="M436.103 254.657C436.103 256.153 437.311 257.365 438.803 257.365C440.295 257.365 441.503 256.153 441.503 254.657C441.503 253.162 440.295 251.95 438.803 251.95C437.311 251.95 436.103 253.162 436.103 254.657Z" fill="#C9DFF2"/>
<path d="M452.092 256.574C451.037 255.517 451.037 253.802 452.092 252.745C453.146 251.688 454.856 251.688 455.91 252.745C456.965 253.802 456.965 255.517 455.91 256.574C454.856 257.631 453.146 257.631 452.092 256.574Z" fill="#C9DFF2"/>
<path d="M345.007 255.268C344.664 253.813 345.563 252.355 347.015 252.011C348.466 251.668 349.92 252.569 350.263 254.024C350.605 255.479 349.706 256.938 348.255 257.281C346.804 257.625 345.349 256.723 345.007 255.268Z" fill="#C9DFF2"/>
<path d="M360.919 256.571C359.864 255.514 359.864 253.8 360.919 252.742C361.973 251.685 363.683 251.685 364.737 252.742C365.792 253.8 365.792 255.514 364.737 256.571C363.683 257.628 361.973 257.628 360.919 256.571Z" fill="#C9DFF2"/>
<path d="M375.355 255.105C375.116 253.629 376.116 252.238 377.588 251.999C379.06 251.759 380.447 252.762 380.686 254.237C380.924 255.713 379.925 257.104 378.453 257.344C376.981 257.583 375.594 256.581 375.355 255.105Z" fill="#C9DFF2"/>
<path d="M390.589 255.268C390.246 253.812 391.145 252.354 392.597 252.011C394.048 251.667 395.502 252.569 395.845 254.024C396.187 255.479 395.288 256.937 393.837 257.281C392.386 257.624 390.931 256.723 390.589 255.268Z" fill="#C9DFF2"/>
<path d="M74.1133 303H455.055C455.277 303 455.454 302.819 455.454 302.6C455.454 302.38 455.277 302.199 455.055 302.199H74.1133C73.8914 302.199 73.7139 302.38 73.7139 302.6C73.7139 302.819 73.8949 303 74.1133 303Z" fill="black"/>
<path d="M152.196 302.986C152.418 302.986 152.596 302.805 152.596 302.586V211.09C152.596 210.867 152.415 210.689 152.196 210.689C151.978 210.689 151.797 210.871 151.797 211.09V302.586C151.797 302.808 151.978 302.986 152.196 302.986Z" fill="black"/>
<path d="M226.459 302.986C226.589 302.986 226.718 302.921 226.794 302.805C226.916 302.62 226.865 302.37 226.677 302.25L152.414 253.316C152.23 253.193 151.981 253.247 151.861 253.432C151.739 253.617 151.79 253.867 151.977 253.987L226.241 302.921C226.309 302.966 226.384 302.986 226.459 302.986Z" fill="black"/>
<path d="M77.9293 302.986C78.0043 302.986 78.0795 302.966 78.1477 302.921L152.414 253.987C152.599 253.863 152.65 253.617 152.53 253.432C152.411 253.247 152.162 253.196 151.977 253.316L77.7108 302.25C77.5265 302.374 77.4753 302.62 77.5947 302.805C77.6698 302.921 77.7995 302.986 77.9293 302.986Z" fill="black"/>
<path d="M230.862 214.536H138.931C136.419 214.536 134.381 212.493 134.381 209.974V207.639H235.409V209.974C235.409 212.493 233.371 214.536 230.859 214.536H230.862Z" fill="#F9A35D"/>
<path d="M138.491 214.536H86.1524C83.6401 214.536 81.6023 212.493 81.6023 209.974V207.639H143.041V209.974C143.041 212.493 141.003 214.536 138.491 214.536Z" fill="black"/>
<path d="M158.688 106.676H68.7198C64.726 106.676 61.7563 110.383 62.6199 114.295L80.5167 195.383C81.1482 198.251 83.6844 200.294 86.6165 200.294H176.585C180.579 200.294 183.548 196.588 182.685 192.675L164.788 111.588C164.157 108.719 161.62 106.676 158.688 106.676Z" fill="black"/>
<path d="M163.655 106.676H73.6866C69.6929 106.676 66.7232 110.383 67.5868 114.295L85.4835 195.383C86.115 198.251 88.6512 200.294 91.5833 200.294H181.552C185.545 200.294 188.515 196.588 187.652 192.675L169.755 111.588C169.123 108.719 166.587 106.676 163.655 106.676Z" fill="#FFBC7B"/>
<path d="M116.973 225.657H152.142C152.364 225.657 152.541 225.475 152.541 225.256C152.541 225.037 152.36 224.856 152.142 224.856H116.973C116.751 224.856 116.573 225.037 116.573 225.256C116.573 225.475 116.754 225.657 116.973 225.657Z" fill="black"/>
<path d="M105.302 226.533H129.848C130.551 226.533 131.121 225.961 131.121 225.256C131.121 224.551 130.551 223.98 129.848 223.98H105.302C104.599 223.98 104.028 224.551 104.028 225.256C104.028 225.961 104.599 226.533 105.302 226.533Z" fill="black"/>
<path d="M150.659 173.768C150.659 173.768 209.507 139.031 221.239 149.08C228.595 155.381 220.099 164.705 207.473 175.469C188.194 191.905 183.391 194.63 183.391 194.63L150.659 173.768Z" fill="black"/>
<path d="M300.213 271.863L280.917 261.332L271.932 275.416L290.058 285.749C290.058 285.749 302.79 287.074 300.209 271.863H300.213Z" fill="#F7B692"/>
<path d="M289.737 270.82C288.307 270.183 289.45 268.324 289.45 268.324L293.475 270.019C293.475 270.019 291.191 271.47 289.733 270.823L289.737 270.82Z" fill="black"/>
<path d="M323.752 256.944C323.752 256.944 304.708 261.756 302.107 260.887C299.506 260.017 295.939 256.985 295.939 256.985C295.939 256.985 295.27 270.799 289.733 270.82C291.846 273.524 299.755 272.972 299.755 272.972C299.755 272.972 328.377 267.411 328.183 261.092C328.053 256.91 323.752 256.944 323.752 256.944Z" fill="#6CB3F1"/>
<path d="M341.833 248.452C335.792 247.117 331.439 254.558 329.098 255.845C327.476 256.735 323.752 256.947 323.752 256.947C323.752 256.947 325.995 261.534 322.455 263.567C316.058 267.239 296.465 271.117 296.38 272.49C296.295 273.862 297.872 282.518 292.71 284.086C288.017 285.513 284.054 282.902 284.054 282.902C284.054 282.902 283.259 288.015 288.218 288.532C289.522 289.271 292.635 295.675 296.639 297.099C303.128 302.196 340.717 275.704 345.182 257.019C346.745 250.475 341.833 248.455 341.833 248.455V248.452Z" fill="white"/>
<path d="M288.218 288.525C298.52 287.136 301.353 280.715 300.851 276.053C307.337 275.69 331.101 264.549 337.222 268.075C337.222 268.075 319.137 291.746 315.106 285.808C311.075 279.869 301.415 293.283 293.116 294.563C290.836 292.167 289.106 289.028 288.215 288.525H288.218Z" fill="#6CB3F1"/>
<path d="M293.117 294.967C293.137 294.967 293.158 294.967 293.178 294.963C296.773 294.409 300.473 291.743 304.05 289.162C307.231 286.869 310.235 284.706 312.427 284.706C313.396 284.706 314.164 285.14 314.775 286.04C315.284 286.79 316.011 287.17 316.932 287.17C323.07 287.17 336.949 269.091 337.539 268.324C337.611 268.232 337.638 268.116 337.615 268.003C337.591 267.89 337.522 267.79 337.42 267.732C336.553 267.233 335.375 266.99 333.822 266.99C328.606 266.99 320.284 269.779 312.942 272.24C307.675 274.006 303.128 275.529 300.828 275.656C300.719 275.663 300.616 275.714 300.544 275.796C300.473 275.882 300.439 275.988 300.452 276.097C300.958 280.814 298.046 286.797 288.164 288.128C287.993 288.152 287.857 288.282 287.823 288.45C287.792 288.621 287.87 288.792 288.021 288.874C288.386 289.08 289.068 290.028 289.796 291.034C290.625 292.181 291.656 293.611 292.827 294.84C292.902 294.919 293.008 294.963 293.117 294.963V294.967ZM312.43 283.901C309.979 283.901 306.873 286.14 303.586 288.508C300.155 290.983 296.609 293.54 293.264 294.132C292.188 292.975 291.226 291.643 290.444 290.562C289.918 289.836 289.481 289.227 289.103 288.796C298.032 287.29 301.633 281.628 301.285 276.419C303.78 276.152 308.163 274.68 313.195 272.996C320.479 270.556 328.74 267.787 333.822 267.787C334.966 267.787 335.898 267.931 336.601 268.218C334.519 270.888 322.21 286.362 316.932 286.362C316.284 286.362 315.792 286.105 315.437 285.582C314.68 284.463 313.666 283.898 312.43 283.898V283.901Z" fill="black"/>
<path d="M296.639 297.092C296.639 297.092 300.923 302.411 301.913 302.353C309.972 301.901 319.38 287.3 324.002 284.702C330.962 280.79 345.424 269.492 346.821 257.201C347.66 249.818 341.837 248.449 341.837 248.449C341.837 248.449 347.568 251.283 341.192 262.865C337.645 269.303 327.603 276.755 319.212 282.69C307.214 291.174 303.238 299.488 296.643 297.092H296.639Z" fill="black"/>
<path d="M302.49 272.281C302.429 272.805 302.808 273.28 303.33 273.342C303.852 273.404 304.327 273.024 304.388 272.5C304.449 271.976 304.071 271.501 303.548 271.439C303.026 271.377 302.552 271.757 302.49 272.281Z" fill="black"/>
<path d="M308.494 270.505C308.433 271.028 308.811 271.504 309.334 271.566C309.856 271.627 310.33 271.247 310.392 270.724C310.453 270.2 310.074 269.724 309.552 269.663C309.03 269.601 308.555 269.981 308.494 270.505Z" fill="black"/>
<path d="M313.758 269.183C313.696 269.707 314.075 270.183 314.597 270.245C315.12 270.306 315.594 269.926 315.656 269.403C315.717 268.879 315.338 268.403 314.816 268.341C314.294 268.28 313.819 268.66 313.758 269.183Z" fill="black"/>
<path d="M319.742 266.658C319.681 267.181 320.06 267.657 320.582 267.719C321.104 267.78 321.579 267.4 321.64 266.877C321.701 266.353 321.322 265.877 320.8 265.816C320.278 265.754 319.804 266.134 319.742 266.658Z" fill="black"/>
<path d="M320.691 267.168C320.739 267.168 320.786 267.157 320.834 267.14C321.043 267.061 321.145 266.829 321.066 266.623C321.049 266.575 319.24 261.725 320.858 257.899C320.944 257.693 320.848 257.461 320.647 257.372C320.442 257.286 320.21 257.382 320.121 257.584C318.373 261.715 320.237 266.699 320.319 266.911C320.38 267.072 320.53 267.168 320.691 267.168Z" fill="black"/>
<path d="M314.707 269.693C314.755 269.693 314.806 269.683 314.854 269.666C315.011 269.604 315.113 269.45 315.107 269.279C315.066 267.879 316.506 261.732 317.278 258.679C317.332 258.464 317.202 258.244 316.987 258.193C316.772 258.138 316.554 258.268 316.503 258.484C316.424 258.799 314.813 265.217 314.403 268.181C313.106 266.141 311.065 261.79 311.505 259.918C311.557 259.703 311.423 259.487 311.208 259.436C310.993 259.384 310.778 259.518 310.727 259.733C310.116 262.317 313.267 268.253 314.41 269.56C314.489 269.649 314.598 269.697 314.711 269.697L314.707 269.693Z" fill="black"/>
<path d="M309.443 271.018C309.552 271.018 309.658 270.974 309.737 270.888C311.01 269.495 313.164 260.541 313.406 259.525C313.457 259.309 313.324 259.093 313.109 259.042C312.894 258.991 312.679 259.124 312.628 259.34C311.778 262.916 310.286 268.376 309.382 269.998C307.665 268.098 304.872 262.023 304.773 260.887C304.756 260.664 304.565 260.5 304.34 260.521C304.118 260.538 303.958 260.733 303.975 260.955C304.094 262.355 307.337 269.365 309.18 270.922C309.255 270.984 309.347 271.018 309.44 271.018H309.443Z" fill="black"/>
<path d="M303.439 272.791C303.569 272.791 303.695 272.729 303.77 272.613C303.914 272.401 307.307 267.304 307.525 260.565C307.532 260.343 307.358 260.158 307.139 260.151C306.918 260.151 306.733 260.319 306.726 260.538C306.518 267.037 303.146 272.113 303.112 272.161C302.989 272.346 303.037 272.596 303.217 272.719C303.286 272.767 303.364 272.788 303.443 272.788L303.439 272.791Z" fill="black"/>
<path d="M306.935 261.267C306.979 261.267 307.023 261.26 307.068 261.243C316.117 258.029 318.691 252.734 318.086 248.846C317.694 246.323 315.919 244.519 313.765 244.451C312.447 244.41 307.969 245.091 305.675 255.571C305.627 255.787 305.764 256.003 305.979 256.051C306.194 256.098 306.409 255.962 306.457 255.746C308.174 247.901 311.341 245.17 313.741 245.255C315.502 245.31 316.963 246.837 317.294 248.969C317.824 252.375 315.393 257.433 306.798 260.486C306.59 260.562 306.481 260.791 306.556 261C306.614 261.164 306.767 261.267 306.935 261.267Z" fill="black"/>
<path d="M303.839 298.55C304.436 298.55 305.054 298.314 305.658 297.852C309.529 294.878 312.365 282.799 306.552 265.268C306.484 265.059 306.255 264.943 306.047 265.015C305.839 265.083 305.723 265.312 305.794 265.521C312.024 284.315 308.064 294.991 305.173 297.216C304.627 297.633 303.804 298.02 302.985 297.479C300.825 296.048 299.927 289.562 302.801 278.298C302.856 278.083 302.726 277.864 302.511 277.809C302.299 277.754 302.081 277.884 302.023 278.1C298.848 290.545 300.319 296.678 302.541 298.15C302.948 298.42 303.388 298.554 303.839 298.554V298.55Z" fill="black"/>
<path d="M288.047 261.335L271.038 290.928C271.038 290.928 178.445 230.753 138.047 207.64C109.496 207.64 115.064 173.765 115.064 173.765H150.659L288.051 261.332L288.047 261.335Z" fill="#6CB3F1"/>
<path d="M271.039 287.608C271.168 287.608 271.298 287.543 271.373 287.423C271.493 287.238 271.442 286.989 271.254 286.869C270.329 286.266 178.189 226.423 138.242 203.57C138.18 203.536 138.112 203.519 138.044 203.519C130.626 203.519 124.888 201.188 120.997 196.588C112.808 186.912 115.43 170.28 115.457 170.113C115.491 169.894 115.344 169.688 115.126 169.651C114.904 169.613 114.702 169.764 114.665 169.983C114.638 170.154 111.958 187.151 120.386 197.108C124.421 201.872 130.322 204.299 137.938 204.323C177.916 227.204 269.895 286.944 270.82 287.546C270.889 287.591 270.964 287.611 271.039 287.611V287.608Z" fill="black"/>
<path d="M188.699 213.386L187.802 197.44L196.277 202.844L188.699 213.386Z" fill="black"/>
<path d="M287.197 264.761L284.036 282.316L277.974 278.86L286.344 264.296L287.197 264.761Z" fill="black"/>
<path d="M160.296 168.357C160.283 170.294 160.651 179.07 157.589 178.591C154.78 178.153 150.657 173.768 150.657 173.768L160.293 168.357H160.296Z" fill="#6CB3F1"/>
<path d="M258.945 285.041C258.863 284.877 258.699 283.487 259.344 282.59C259.989 281.694 262.925 284.784 262.925 284.784C262.925 284.784 259.385 285.924 258.945 285.041Z" fill="black"/>
<path d="M278.606 259.377L265.236 287.204L257.436 282.128C257.436 282.128 270.083 273.304 278.606 259.377Z" fill="black"/>
<path d="M288.048 261.335L280.798 255.328C280.798 255.328 263.106 289.203 258.941 285.044C259.013 287.598 271.035 290.931 271.035 290.931C280.794 283.271 288.044 261.339 288.044 261.339L288.048 261.335Z" fill="#6CB3F1"/>
<path d="M138.047 208.043C138.269 208.043 138.446 207.862 138.446 207.643V203.919C138.446 203.697 138.265 203.519 138.047 203.519C137.828 203.519 137.648 203.7 137.648 203.919V207.643C137.648 207.865 137.828 208.043 138.047 208.043Z" fill="black"/>
<path d="M197.202 184.742L211.621 153.256C211.621 153.256 220.438 139.411 232.436 144.566C246.643 150.672 238.543 168.956 238.543 168.956L225.404 202.957C232.579 190.29 197.202 184.738 197.202 184.738V184.742Z" fill="#6CB3F1"/>
<path d="M219.516 183.407L202.527 173.919L201.755 175.486L219.516 183.407Z" fill="black"/>
<path d="M201.24 183.088C201.401 183.088 201.551 182.989 201.612 182.832L213.856 150.969C213.935 150.764 213.833 150.531 213.628 150.449C213.423 150.37 213.191 150.473 213.109 150.679L200.865 182.541C200.786 182.746 200.889 182.979 201.093 183.061C201.141 183.078 201.189 183.088 201.237 183.088H201.24Z" fill="black"/>
<path d="M225.404 202.961C220.574 209.614 200.308 197.443 197.202 184.741C199.462 177.81 214.409 186.008 214.409 186.008C214.409 186.008 230.193 196.365 225.404 202.961Z" fill="black"/>
<path d="M212.215 207.373L221.643 187.476L207.125 179.255L197.827 197.97C197.827 197.97 197.206 210.792 212.211 207.373H212.215Z" fill="#F7B692"/>
<path d="M220.697 189.468L217.431 196.365C217.431 196.365 213.485 191.46 203.21 187.137L205.61 182.305L220.697 189.472V189.468Z" fill="black"/>
<path d="M197.202 184.741L201.104 175.185C207.214 178.112 232.528 187.285 231.575 193.767L225.4 202.961C231.927 192.898 197.199 184.741 197.199 184.741H197.202Z" fill="#6CB3F1"/>
<path d="M235.999 226.235C235.999 226.235 224.544 214.814 226.23 204.439C226.23 204.439 219.157 204.97 215.02 201.441C212.866 204.111 214.931 210.025 214.931 210.025C214.931 210.025 226.752 236.746 232.852 235.141C236.887 234.077 235.999 226.235 235.999 226.235Z" fill="#6CB3F1"/>
<path d="M241.45 235.85C241.45 235.85 242.74 232.372 239.593 229.641C236.446 226.909 219.856 210.6 219.365 203.789C218.873 196.981 211.995 203.221 209.794 201.804C207.589 200.387 205.206 190.173 201.164 192.159C197.123 194.144 192.453 204.073 192.808 206.486C193.163 208.896 241.453 235.85 241.453 235.85H241.45Z" fill="white"/>
<path d="M206.152 254.668C208.326 254.668 210.65 253.932 212.849 252.463C217.327 249.469 220.56 244.091 221.949 237.315C223.628 229.114 222.502 219.116 218.686 208.403C218.611 208.194 218.382 208.088 218.174 208.16C217.966 208.235 217.856 208.464 217.931 208.673C221.696 219.249 222.816 229.1 221.164 237.154C219.819 243.722 216.706 248.921 212.402 251.796C208.343 254.507 203.851 254.555 200.956 251.912C196.747 248.072 195.478 237.958 204.527 221.084C204.633 220.889 204.557 220.646 204.363 220.54C204.168 220.434 203.926 220.509 203.82 220.704C192.153 242.452 198.263 250.543 200.414 252.505C201.994 253.946 203.994 254.668 206.145 254.668H206.152Z" fill="black"/>
<path d="M199.298 193.562C202.551 192.23 205.36 203.474 209.791 205.165C212.399 206.161 215.024 203.508 215.024 203.508C215.024 203.508 233.262 228.097 231.855 230.442C227.008 227.693 220.915 224.209 214.989 220.749C214.972 220.317 214.983 219.865 215.024 219.393C215.908 209.06 197.898 199.606 193.765 202.512C194.423 200.613 197.096 195.728 199.298 193.558V193.562Z" fill="#6CB3F1"/>
<path d="M231.854 230.842C231.991 230.842 232.124 230.774 232.199 230.647C232.503 230.144 233.21 228.96 224.301 215.868C219.962 209.495 215.391 203.327 215.347 203.265C215.279 203.173 215.17 203.115 215.053 203.104C214.934 203.098 214.825 203.139 214.739 203.221C214.722 203.238 212.964 204.983 211.019 204.983C210.643 204.983 210.278 204.918 209.933 204.785C207.936 204.022 206.185 201.013 204.642 198.357C202.987 195.509 201.557 193.048 199.836 193.048C199.604 193.048 199.372 193.096 199.147 193.189C199.099 193.209 199.055 193.237 199.017 193.274C196.723 195.533 194.03 200.524 193.385 202.382C193.327 202.546 193.385 202.728 193.521 202.834C193.658 202.94 193.849 202.944 193.992 202.841C194.426 202.536 195.068 202.379 195.894 202.379C199.573 202.379 206.452 205.593 210.828 210.374C212.729 212.452 214.931 215.697 214.62 219.355C214.576 219.859 214.565 220.321 214.582 220.762C214.589 220.899 214.664 221.022 214.78 221.091C219.781 224.01 225.458 227.272 231.65 230.787C231.711 230.822 231.779 230.839 231.848 230.839L231.854 230.842ZM214.965 204.1C215.996 205.5 219.901 210.829 223.631 216.309C230.021 225.698 231.315 228.782 231.513 229.785C225.608 226.434 220.187 223.316 215.381 220.512C215.374 220.17 215.388 219.814 215.422 219.427C215.692 216.302 214.306 212.986 211.425 209.833C206.759 204.734 199.734 201.578 195.901 201.578C195.382 201.578 194.918 201.633 194.511 201.742C195.488 199.558 197.693 195.739 199.522 193.904C199.628 193.87 199.734 193.849 199.84 193.849C201.099 193.849 202.55 196.345 203.953 198.761C205.643 201.667 207.39 204.672 209.65 205.535C210.083 205.699 210.544 205.784 211.019 205.784C212.766 205.784 214.303 204.662 214.965 204.1Z" fill="black"/>
<path d="M241.402 239.933C241.402 239.933 242.396 238.088 241.71 236.288C240.508 233.135 219.679 223.593 215.72 220.037C211.76 216.484 199.946 203.467 192.805 206.483C190.023 207.831 189.863 211.185 189.863 211.185L241.402 239.929V239.933Z" fill="black"/>
<path d="M241.402 239.933C239.423 244.756 224.144 243.434 216.355 238.115C208.562 232.797 206.124 226.838 201.55 224.996C196.976 223.151 183.739 216.378 190.542 210.528C196.068 205.778 210.483 222.231 216.355 225.352C222.229 228.474 241.757 236.425 241.402 239.936V239.933Z" fill="white"/>
<path d="M216.354 225.352C216.354 225.352 214.064 220.502 210.152 220.656C208.08 223.863 216.354 225.352 216.354 225.352Z" fill="white"/>
<path d="M210.152 220.656L216.351 225.352L207.913 230.442C205.68 227.97 203.891 225.941 201.546 224.996C201.256 224.88 200.932 224.743 200.58 224.589L210.148 220.656H210.152Z" fill="#6CB3F1"/>
<path d="M227.001 217.709C226.478 217.648 226.099 217.175 226.161 216.648C226.192 216.367 226.345 216.131 226.56 215.981C226.963 216.467 227.369 216.949 227.782 217.432C227.584 217.63 227.301 217.743 227.001 217.709Z" fill="black"/>
<path d="M223.55 212.897C223.028 212.835 222.649 212.363 222.711 211.836C222.735 211.627 222.827 211.442 222.957 211.298C223.305 211.795 223.673 212.301 224.056 212.811C223.902 212.883 223.731 212.917 223.55 212.897Z" fill="black"/>
<path d="M220.423 207.944C219.901 207.883 219.522 207.41 219.584 206.883C219.618 206.589 219.785 206.342 220.014 206.192C220.236 206.732 220.512 207.304 220.833 207.896C220.707 207.937 220.567 207.958 220.423 207.941V207.944Z" fill="black"/>
<path d="M226.967 217.162C227.049 217.162 227.135 217.134 227.206 217.083L229.125 215.662C229.234 215.58 229.295 215.45 229.285 215.317C229.278 215.18 229.2 215.06 229.084 214.992L223.987 212.11L227.411 210.217C227.548 210.142 227.626 209.994 227.616 209.84C227.606 209.686 227.507 209.549 227.363 209.491L220.349 206.702C220.144 206.62 219.912 206.719 219.83 206.928C219.748 207.133 219.85 207.366 220.055 207.448L226.281 209.922L222.974 211.75C222.847 211.819 222.769 211.956 222.765 212.099C222.765 212.246 222.844 212.38 222.97 212.452L228.152 215.382L226.728 216.436C226.551 216.566 226.513 216.819 226.643 216.997C226.722 217.103 226.844 217.162 226.964 217.162H226.967Z" fill="black"/>
<path d="M158.661 169.859C148.8 176.438 125.721 189.845 114.802 180.689C114.744 180.638 114.686 180.593 114.628 180.542C114.607 176.561 115.065 173.768 115.065 173.768L158.661 169.859Z" fill="black"/>
<path d="M57.7246 148.447C58.1342 148.447 58.5404 148.279 58.834 147.951C59.3801 147.338 59.3289 146.397 58.7145 145.849C56.8678 144.196 55.9257 142.334 55.8301 140.161C55.6117 135.098 60.155 130.197 60.1994 130.146C60.7626 129.547 60.7353 128.605 60.1379 128.041C59.5406 127.476 58.6053 127.503 58.042 128.099C57.8202 128.335 52.5976 133.945 52.8639 140.273C52.9902 143.258 54.2907 145.88 56.7381 148.07C57.0214 148.324 57.3764 148.45 57.728 148.45L57.7246 148.447Z" fill="#FCDBC0"/>
<path d="M148.342 69.0637C148.342 69.0637 188.16 69.4265 189.761 69.0021C191.362 68.5777 231.856 27.3886 235.532 21.683L246.424 9.4433L248.24 22.6071C242.038 25.9682 217.581 83.3536 208.559 86.1089C199.54 88.8607 148.339 101.829 148.339 101.829V69.0637H148.342Z" fill="#F7B692"/>
<path d="M130.708 69.6285C135.897 67.2017 177.254 67.698 183.9 66.572C188.013 65.8737 193.161 63.7208 194.577 62.2799C194.577 62.2799 196.916 74.8823 203.254 81.3821C205.972 84.1682 209.562 84.8425 211.754 82.4192C208.955 86.8448 202.913 90.7946 194.994 93.5464C176.623 99.9332 153.626 101.994 153.626 101.994L130.705 69.625L130.708 69.6285Z" fill="#FCDBC0"/>
<path d="M153.629 99.2316C153.629 99.2316 153.657 99.2316 153.667 99.2316C155.38 99.0639 195.734 95.0764 203.544 88.2481C203.711 88.1009 203.729 87.8476 203.582 87.6833C203.435 87.5156 203.182 87.4985 203.019 87.6457C195.4 94.3063 154.005 98.393 153.588 98.4341C153.37 98.4546 153.206 98.6532 153.23 98.8722C153.25 99.081 153.424 99.235 153.629 99.235V99.2316Z" fill="white"/>
<path d="M204.544 83.9902C205.05 83.9902 205.541 83.7301 205.821 83.2646C206.241 82.5595 206.012 81.6456 205.309 81.2212C200.81 78.5241 197.083 66.3837 196.024 61.9342C195.833 61.1333 195.031 60.6404 194.236 60.8286C193.437 61.0203 192.946 61.8212 193.133 62.6221C193.553 64.3848 197.407 79.9548 203.783 83.778C204.022 83.9218 204.285 83.9902 204.544 83.9902Z" fill="#FCDBC0"/>
<path d="M149.298 80.2629C149.298 80.2629 161.897 96.6954 163.494 108.949C166.505 132.038 169.267 163.634 169.267 163.634C169.267 163.634 125.059 192.114 109.78 175.473C105.08 147.259 93.2285 90.8459 93.2285 90.8459C93.2285 90.8459 101.503 73.2737 119.877 77.8122C133.569 81.1938 149.301 80.2663 149.301 80.2663L149.298 80.2629Z" fill="white"/>
<path d="M99.4338 121.058L113.992 114.559L105.414 151.435C103.482 141.321 101.359 130.615 99.4304 121.062L99.4338 121.058Z" fill="black"/>
<path d="M147.53 69.1356C147.625 67.3421 143.785 66.1852 137.296 67.9821C130.807 69.7791 136.166 77.3022 136.166 77.3022C136.166 77.3022 147.256 74.2731 147.526 69.1356H147.53Z" fill="black"/>
<path d="M120.665 69.1356C120.665 69.1356 122.249 68.8344 123.566 69.1356C124.884 69.4368 123.792 71.7745 123.792 71.7745C123.792 71.7745 121.225 70.9462 120.665 69.1356Z" fill="black"/>
<path d="M142.682 31.8484C142.682 31.8484 149.765 23.5723 143.051 17.8358C140.767 15.8849 137.204 16.7029 137.204 16.7029C137.204 16.7029 135.678 6.29097 127.704 5.61327C119.645 4.92873 113.183 16.922 99.3792 27.1901C95.5186 30.0618 100.28 36.3254 100.28 36.3254C100.28 36.3254 97.7988 38.2455 98.6248 42.8833C100.045 50.8309 122.468 64.0049 122.468 64.0049L142.682 31.8484Z" fill="black"/>
<path d="M139.03 57.3991C139.03 57.3991 139.102 70.4191 141.058 73.2839C136.695 77.5076 122.55 74.7933 122.55 74.7933L120.355 56.2353L139.03 57.3991Z" fill="#F7B692"/>
<path d="M120.6 58.3129L120.57 58.0494L125.847 56.581L139.03 57.4025C139.03 57.4025 139.064 63.2519 139.675 67.9719C133.022 68.3552 122.328 59.7436 120.6 58.3164V58.3129Z" fill="black"/>
<path d="M130.073 22.7029C130.073 22.7029 155.24 40.2855 152.305 49.9957C149.369 59.706 135.347 64.2206 117.474 57.0397C99.6045 49.8622 100.618 11.9248 130.073 22.7029Z" fill="#F7B692"/>
<path d="M130.302 20.4029L134.675 25.2768C130.906 29.6819 122.629 33.9808 117.478 34.4052C120.359 37.3248 122.543 41.6032 122.973 44.4235C122.973 44.4235 119.277 52.241 113.883 56.581C97.8573 41.9352 103.937 10.7576 130.302 20.4063V20.4029Z" fill="black"/>
<path d="M115.736 56.2114L125.598 52.6038L123.683 59.1139C121.676 58.5799 119.604 57.8954 117.477 57.0397C116.876 56.7967 116.296 56.5194 115.736 56.208V56.2114Z" fill="black"/>
<path d="M125.195 46.5045C125.195 46.5045 117.181 37.4994 110.374 41.9729C104.186 46.039 114.068 57.5907 119.437 57.3991C124.018 57.2382 126.353 51.0225 126.353 51.0225L125.195 46.5045Z" fill="#F7B692"/>
<path d="M123.44 49.5405C123.44 49.5405 121.754 47.1309 119.774 46.063C113.371 53.9558 120.99 57.2622 123.44 49.5405Z" fill="#ED7459"/>
<path d="M123.441 49.941C123.516 49.941 123.594 49.9204 123.659 49.8759C123.844 49.7527 123.895 49.5063 123.772 49.3214C121.116 45.2758 116.361 43.4001 113.945 43.6021C112.767 43.7013 111.733 44.4167 111.309 45.4264C110.913 46.3745 111.108 47.4253 111.842 48.3083C111.982 48.4795 112.234 48.5034 112.405 48.3597C112.576 48.2193 112.596 47.966 112.456 47.7949C111.914 47.1412 111.767 46.4087 112.047 45.7379C112.354 45.002 113.125 44.4783 114.009 44.403C116.163 44.2216 120.649 46.0254 123.103 49.763C123.181 49.8793 123.308 49.9444 123.437 49.9444L123.441 49.941Z" fill="black"/>
<path d="M136.924 35.7914C137.395 36.8114 137.262 37.8758 136.627 38.1702C135.992 38.4646 135.095 37.8793 134.624 36.8593C134.152 35.8393 134.286 34.7749 134.921 34.4805C135.555 34.1862 136.453 34.7714 136.924 35.7914Z" fill="black"/>
<path d="M135.729 48.5342C133.906 48.5342 132.429 47.0524 132.429 45.2244C132.429 43.3965 133.906 41.9147 135.729 41.9147C137.552 41.9147 139.03 43.3965 139.03 45.2244C139.03 47.0524 137.552 48.5342 135.729 48.5342Z" fill="#ED7459"/>
<path d="M146.055 42.3357C146.096 42.3357 146.137 42.3288 146.178 42.3151C148.151 41.6853 149.465 40.6756 150.09 39.3134C150.912 37.513 150.199 35.7811 150.168 35.7093C150.137 35.634 150.083 35.5724 150.014 35.5279L138.494 28.1348C138.31 28.015 138.061 28.0698 137.941 28.2546C137.822 28.4428 137.876 28.6893 138.064 28.8091L149.468 36.1303C149.591 36.4965 149.929 37.7424 149.356 38.9848C148.83 40.128 147.676 40.9905 145.935 41.545C145.724 41.6135 145.608 41.8394 145.676 42.0482C145.731 42.2193 145.888 42.3288 146.058 42.3288L146.055 42.3357Z" fill="black"/>
<path d="M124.09 38.3585C124.124 38.3585 124.158 38.355 124.192 38.3448C124.407 38.29 124.533 38.0709 124.479 37.8553C123.653 34.6825 123.939 32.3721 125.332 30.9928C128.104 28.2375 134.419 29.9112 134.484 29.9283C134.699 29.9865 134.917 29.8598 134.975 29.6442C135.033 29.432 134.907 29.2095 134.692 29.1513C134.415 29.076 127.868 27.3407 124.769 30.4212C123.161 32.0196 122.803 34.5866 123.704 38.0573C123.752 38.2387 123.912 38.3585 124.09 38.3585Z" fill="black"/>
<path d="M100.885 36.7258C101.107 36.7258 101.284 36.5478 101.284 36.3254C101.284 36.1029 101.107 35.9249 100.885 35.9249C100.581 35.9249 93.4162 35.8085 92.7062 27.5358C92.6857 27.3168 92.4979 27.149 92.2727 27.1696C92.0508 27.1901 91.8904 27.3818 91.9074 27.6043C92.6823 36.6231 100.799 36.7292 100.881 36.7292L100.885 36.7258Z" fill="black"/>
<path d="M97.0208 39.2894C98.8197 39.2894 101.032 38.9129 103.684 37.9957C103.892 37.9238 104.005 37.6945 103.933 37.4857C103.861 37.2769 103.633 37.1674 103.424 37.2358C96.7648 39.5393 93.109 38.2592 92.003 36.4623C91.3442 35.391 91.532 34.0972 92.4843 33.1628C94.1672 31.513 98.2736 30.9791 104.315 34.9049C104.5 35.0247 104.749 34.9734 104.868 34.7851C104.988 34.6003 104.937 34.3505 104.749 34.2307C98.3111 30.0447 93.8156 30.7292 91.9211 32.5877C90.7093 33.7754 90.4704 35.5005 91.3203 36.8833C92.1464 38.2284 94.0033 39.286 97.0208 39.286V39.2894Z" fill="black"/>
<path d="M147.529 69.1356C147.116 74.6428 124.198 72.9074 120.665 69.1356C116.081 69.5497 118.112 89.9184 118.112 89.9184C118.112 89.9184 143.317 92.2937 147.529 89.4289C151.741 86.5607 147.529 69.1356 147.529 69.1356Z" fill="white"/>
<path d="M145.105 53.2644C145.16 53.2644 145.211 53.2644 145.266 53.2644C145.488 53.2576 145.658 53.0693 145.652 52.8469C145.645 52.6312 145.467 52.4601 145.252 52.4601H145.239C143.515 52.5251 141.914 51.2929 140.944 50.3448C144.453 50.9575 147.635 48.3699 147.785 48.2467C147.956 48.1064 147.98 47.8531 147.84 47.682C147.7 47.5108 147.447 47.4869 147.276 47.6272C147.239 47.658 143.409 50.7658 139.838 49.1743C139.671 49.099 139.477 49.1469 139.364 49.2906C139.251 49.4344 139.248 49.6363 139.357 49.7835C139.466 49.9273 142.02 53.2644 145.109 53.2644H145.105Z" fill="black"/>
<path d="M113.702 77.066C89.4054 76.734 69.5015 127.948 59.2987 128.677L57.7183 151.928C63.4699 151.928 70.2388 152.564 74.9767 150.11C95.2799 139.589 112.316 123.94 116.112 108.596C122.096 84.4009 113.699 77.0695 113.699 77.0695L113.702 77.066Z" fill="#FCDBC0"/>
<path d="M247.592 1.7764C252.961 -1.95437 259.433 1.03366 266.563 3.11468L259.405 5.17858L247.592 1.77982V1.7764Z" fill="#ED7459"/>
<path d="M240.474 6.29439C239.382 7.17745 235.856 11.538 234.914 22.6105L241.703 20.6116L240.474 6.29439Z" fill="#F7B692"/>
<path d="M327.992 3.07018H251.766C249.807 3.07018 248.216 4.66517 248.216 6.62982V36.7361C248.216 38.7007 249.807 40.2957 251.766 40.2957H327.992C329.951 40.2957 331.542 38.7007 331.542 36.7361V6.62982C331.542 4.66517 329.951 3.07018 327.992 3.07018Z" fill="#6CB3F1"/>
<path d="M240.474 6.29439C240.474 6.29439 247.827 0.674275 250.308 1.05077C252.787 1.42727 268.29 7.02685 268.977 7.05765C268 10.809 262.406 9.48779 255.371 8.28641C248.335 7.08504 244.98 16.9459 238.385 15.1524L240.471 6.29781L240.474 6.29439Z" fill="#F7B692"/>
<path d="M248.243 10.7063V22.6105L246.356 12.2328L248.243 10.7063Z" fill="black"/>
<path d="M79.6772 53.3192L84.7428 48.1303C84.7428 48.1303 86.7295 48.8697 85.8385 51.1184C84.9476 53.3671 79.6772 53.3226 79.6772 53.3226V53.3192Z" fill="#ED7459"/>
<path d="M60.0735 74.5811C60.1657 74.5811 60.2578 74.5503 60.3363 74.4819L90.0232 48.7567C90.1904 48.6129 90.2075 48.3597 90.0641 48.192C89.9207 48.0242 89.6681 48.0071 89.5009 48.1509L59.8141 73.8761C59.6468 74.0198 59.6298 74.2731 59.7731 74.4408C59.8516 74.5332 59.9643 74.5811 60.0769 74.5811H60.0735Z" fill="black"/>
<path d="M76.8715 68.1019C76.8715 68.1019 74.8439 56.5674 75.1681 55.9581C75.4924 55.3489 76.5711 54.6096 77.5098 54.2844L76.8715 68.1019Z" fill="#ED7459"/>
<path d="M86.3668 86.6394C86.3668 86.6394 87.2782 83.6514 86.6228 81.9263C85.9674 80.2047 77.4918 70.6827 77.0105 68.9405C76.5292 67.1983 76.3005 55.8794 76.6384 54.9895C76.8808 54.3563 84.2368 50.4099 84.387 50.4681C84.5372 50.5262 90.0806 51.1252 90.0806 51.1252C90.0806 51.1252 90.7531 52.2924 89.299 53.1583C87.8448 54.0243 81.4958 55.3762 81.4958 55.3762L81.646 67.147L97.1465 83.6856C97.1465 83.6856 96.3818 87.7689 96.0542 88.6246C95.7265 89.4768 86.3566 86.6394 86.3566 86.6394H86.3668Z" fill="#F7B692"/>
<path d="M90.5891 54.3049C90.5891 54.3049 88.2407 52.3163 87.6195 52.2068C86.9982 52.0973 80.7106 53.8908 80.202 55.3215C79.6934 56.7522 80.3727 67.7768 80.5263 68.3963C80.6765 69.0158 97.1567 83.6856 97.1567 83.6856C97.1567 83.6856 98.1295 82.0461 97.5287 79.2771C96.928 76.5081 91.8795 65.2131 90.0669 64.2103C88.2544 63.2074 86.5715 60.7431 86.5715 60.7431L90.596 54.3015L90.5891 54.3049Z" fill="#F7B692"/>
<path d="M85.1482 64.5936C85.1482 64.5936 84.5167 57.666 84.7591 57.3717C85.0014 57.0773 86.4658 56.516 86.4658 56.516L85.1482 64.5936Z" fill="#ED7459"/>
<path d="M84.9366 69.7106C84.9366 69.7106 85.3326 57.9228 86.1006 56.6632C86.8653 55.4036 90.2514 54.0311 90.6405 54.1817C91.429 54.4829 93.873 57.7345 93.873 57.7345C93.873 57.7345 92.5452 59.4698 90.8009 57.8748L89.439 59.2508L90.7873 64.9188L84.9366 69.7106Z" fill="#F7B692"/>
<path d="M57.7216 128.876C60.8654 122.92 83.7014 95.0593 86.7359 84.9862L97.7238 80.9132C98.0925 83.4391 97.7477 86.79 96.9763 90.5071C95.5665 97.2875 80.3016 142.067 79.5335 143.645C78.1511 146.482 65.279 153.581 60.3295 151.592C55.3799 149.604 53.9053 136.115 57.725 128.879L57.7216 128.876Z" fill="#F7B692"/>
<path d="M60.3255 151.586C59.6223 151.301 59.0216 150.774 58.5198 150.073C59.0045 149.138 59.9227 148.447 61.0457 148.307C62.8549 148.081 64.5036 149.371 64.7255 151.185C64.7459 151.353 64.7493 151.517 64.7459 151.678C63.0119 152.017 61.4622 152.041 60.3255 151.586Z" fill="#ED7459"/>
<path d="M272.878 143.419H360.034V151.928H272.878V143.419Z" fill="#6CB3F1"/>
<path d="M296.694 136.69H366.387V143.015H296.694V136.69Z" fill="white"/>
<path d="M297.093 137.094V142.615H365.987V137.094H297.093ZM296.294 136.293H366.789V143.419H296.294V136.293Z" fill="black"/>
<path d="M284.198 127.781H354.218V136.289H284.198V127.781Z" fill="#FFBC7B"/>
<path d="M308.634 119.802H378.654V127.781H308.634V119.802Z" fill="#ED7459"/>
<path d="M353.753 302.986C353.975 302.986 354.152 302.805 354.152 302.586V158.828C354.152 158.606 353.975 158.428 353.753 158.428C353.531 158.428 353.354 158.609 353.354 158.828V302.582C353.354 302.805 353.535 302.983 353.753 302.983V302.986Z" fill="black"/>
<path d="M164.747 302.986C164.969 302.986 165.146 302.805 165.146 302.586V158.828C165.146 158.606 164.966 158.428 164.747 158.428C164.529 158.428 164.348 158.609 164.348 158.828V302.582C164.348 302.805 164.529 302.983 164.747 302.983V302.986Z" fill="black"/>
<path d="M234.156 302.986C234.378 302.986 234.556 302.805 234.556 302.586V158.828C234.556 158.606 234.375 158.428 234.156 158.428C233.938 158.428 233.757 158.609 233.757 158.828V302.582C233.757 302.805 233.938 302.983 234.156 302.983V302.986Z" fill="black"/>
<path d="M278.431 150.227H284.196C284.783 150.227 285.258 149.751 285.258 149.162C285.258 148.574 284.783 148.098 284.196 148.098H278.431C277.844 148.098 277.369 148.574 277.369 149.162C277.369 149.751 277.844 150.227 278.431 150.227Z" fill="black"/>
<path d="M290.976 97.4552L298.458 75.4574H320.7L313.218 97.4552H290.976Z" fill="#ED7459"/>
<path d="M178.902 132.997L186.384 110.995H208.626L201.144 132.997H178.902Z" fill="#ED7459"/>
<path d="M296.994 81.454H207.398C205.152 81.454 203.264 83.1379 202.998 85.3696L183.934 141.427C183.62 144.073 185.678 146.397 188.334 146.397H277.93C280.176 146.397 282.064 144.713 282.33 142.481L301.394 86.4238C301.708 83.778 299.65 81.454 296.994 81.454Z" fill="black"/>
<path d="M300.756 81.454H211.16C208.913 81.454 207.026 83.1379 206.76 85.3696L187.695 141.427C187.381 144.073 189.44 146.397 192.095 146.397H281.692C283.938 146.397 285.825 144.713 286.092 142.481L305.156 86.4238C305.47 83.778 303.412 81.454 300.756 81.454Z" fill="#FFBC7B"/>
<path d="M274.469 151.928H146.563C143.518 151.928 141.047 149.453 141.047 146.397H279.981C279.981 149.45 277.514 151.928 274.465 151.928H274.469Z" fill="#F9A35D"/>
<path d="M246.804 123.577C244.267 122.372 243.661 118.323 245.45 114.531C247.24 110.74 250.748 108.643 253.285 109.847C255.822 111.051 256.428 115.101 254.638 118.892C252.849 122.684 249.341 124.781 246.804 123.577Z" fill="white"/>
<path d="M141.051 146.4H185.938C185.938 149.453 183.47 151.931 180.421 151.931H146.563C143.518 151.931 141.047 149.457 141.047 146.4H141.051Z" fill="black"/>
<path d="M16.6749 272.055C16.6749 266.873 12.4865 262.674 7.31857 262.674C4.35228 262.674 1.71028 264.063 -0.00327301 266.223C1.49523 263.047 4.71071 260.842 8.44844 260.842C13.6164 260.842 17.8047 265.042 17.8047 270.224C17.8047 272.428 17.0401 274.455 15.7703 276.056C16.3437 274.841 16.6714 273.489 16.6714 272.055H16.6749Z" fill="#6CB3F1"/>
<path d="M35.0934 271.408C34.4411 271.408 33.9123 270.878 33.9123 270.224C33.9123 269.57 34.4411 269.04 35.0934 269.04C35.7457 269.04 36.2744 269.57 36.2744 270.224C36.2744 270.878 35.7457 271.408 35.0934 271.408Z" fill="#6CB3F1"/>
<path d="M44.3541 271.408C43.7018 271.408 43.1731 270.878 43.1731 270.224C43.1731 269.57 43.7018 269.04 44.3541 269.04C45.0064 269.04 45.5352 269.57 45.5352 270.224C45.5352 270.878 45.0064 271.408 44.3541 271.408Z" fill="#6CB3F1"/>
<path d="M48.2725 272.055C48.2725 266.873 44.0842 262.674 38.9162 262.674C35.9499 262.674 33.3079 264.063 31.5943 266.223C33.0928 263.047 36.3083 260.842 40.0461 260.842C45.214 260.842 49.4023 265.042 49.4023 270.224C49.4023 272.428 48.6377 274.455 47.3679 276.056C47.9414 274.841 48.2691 273.489 48.2691 272.055H48.2725Z" fill="#6CB3F1"/>
<path d="M3.04801 271.442H12.3053C12.9743 271.442 13.5205 270.898 13.5205 270.224C13.5205 269.55 12.9777 269.006 12.3053 269.006H3.04801C2.37898 269.006 1.83284 269.55 1.83284 270.224C1.83284 270.898 2.37556 271.442 3.04801 271.442Z" fill="black"/>
<path d="M368.455 158.828H142.382C139.87 158.828 137.832 156.785 137.832 154.266V151.931H373.002V154.266C373.002 156.785 370.964 158.828 368.452 158.828H368.455Z" fill="#F9A35D"/>
<path d="M141.941 158.828H27.9761C25.4638 158.828 23.426 156.785 23.426 154.266V151.931H146.491V154.266C146.491 156.785 144.453 158.828 141.941 158.828Z" fill="black"/>
<path d="M16.507 302.986H53.3961C55.8709 302.986 58.1989 302.018 59.9431 300.255C61.6874 298.496 62.6432 296.158 62.6261 293.676C62.534 278.377 62.3462 238.071 62.6159 194.339C62.6978 181.312 63.3122 167.717 67.2752 165.697C68.4256 165.109 69.8797 165.472 71.723 166.796C72.4978 167.354 73.4843 168.1 74.621 168.966C84.1718 176.212 106.537 193.182 130.144 193.182C138.238 193.182 145.317 190.365 150.622 185.036C157.67 177.954 161.261 166.954 161.299 152.335H293.126C294.103 152.335 294.895 151.541 294.895 150.562C294.895 149.583 294.103 148.762 293.126 148.762H284.197C283.975 148.762 283.797 148.943 283.797 149.162C283.797 149.381 283.978 149.563 284.197 149.563H293.126C293.659 149.563 294.092 149.997 294.092 150.531C294.092 151.093 293.659 151.527 293.126 151.527H160.899C160.794 151.527 160.691 151.568 160.616 151.644C160.541 151.719 160.5 151.822 160.5 151.928C160.531 166.522 157.015 177.468 150.058 184.461C143.552 190.998 135.64 192.371 130.148 192.371C106.806 192.371 84.5917 175.514 75.1057 168.319C73.9622 167.453 72.9757 166.704 72.1906 166.139C70.0811 164.619 68.3573 164.239 66.9134 164.975C63.4112 166.762 61.9332 175.267 61.8171 194.329C61.5475 238.064 61.7352 278.373 61.8274 293.676C61.841 295.942 60.9706 298.078 59.3765 299.687C57.7824 301.295 55.6592 302.182 53.3961 302.182H16.507C11.8578 302.182 8.07568 298.39 8.07568 293.728V270.224C8.07568 270.002 7.89481 269.824 7.67633 269.824C7.45789 269.824 7.27695 270.005 7.27695 270.224V293.728C7.27695 298.831 11.4175 302.983 16.507 302.983V302.986Z" fill="black"/>
<path d="M67.7771 167.696C69.1562 167.696 70.2348 166.913 70.2348 165.917C70.2348 165.29 69.8013 164.722 69.0743 164.4C69.0299 164.38 69.0026 164.328 69.0026 164.291L70.1393 158.482H72.0235C72.2454 158.482 72.4229 158.301 72.4229 158.082C72.4229 157.863 72.242 157.681 72.0235 157.681H70.0164C69.7058 157.681 69.4327 157.904 69.3747 158.212L68.2072 164.171C68.2072 164.171 68.2038 164.198 68.2004 164.212C68.1663 164.599 68.3916 164.979 68.7466 165.136C69.1767 165.328 69.4292 165.619 69.4292 165.92C69.4292 166.44 68.6544 166.899 67.7703 166.899C66.8862 166.899 66.1114 166.444 66.1114 165.92C66.1114 165.619 66.3674 165.328 66.7941 165.136C67.1764 164.965 67.388 164.561 67.3095 164.147L66.1694 158.215C66.1114 157.907 65.8417 157.681 65.5277 157.681H63.5172C63.2953 157.681 63.1178 157.863 63.1178 158.082C63.1178 158.301 63.2987 158.482 63.5172 158.482H65.4048L66.5244 164.298C66.5312 164.342 66.5108 164.383 66.4698 164.4C65.7427 164.722 65.3092 165.29 65.3092 165.917C65.3092 166.916 66.3879 167.696 67.7669 167.696H67.7771Z" fill="black"/>
<path d="M72.027 151.935H73.6484V158.831H72.027V151.935Z" fill="#F9A35D"/>
<path d="M164.747 175.87H353.753C353.975 175.87 354.152 175.688 354.152 175.469C354.152 175.25 353.975 175.069 353.753 175.069H164.747C164.525 175.069 164.347 175.25 164.347 175.469C164.347 175.688 164.528 175.87 164.747 175.87Z" fill="black"/>
<path d="M45.1465 302.986C45.3684 302.986 45.5459 302.805 45.5459 302.586V158.828C45.5459 158.606 45.365 158.428 45.1465 158.428C44.928 158.428 44.7472 158.609 44.7472 158.828V302.582C44.7472 302.805 44.928 302.983 45.1465 302.983V302.986Z" fill="black"/>
</g>
<defs>
<clipPath id="clip0_3316_42196">
<rect width="457" height="303" fill="white" transform="matrix(-1 0 0 1 457 0)"/>
</clipPath>
</defs>
</svg>
